<?xml version="1.0" standalone="no"?>
<!DOCTYPE svg PUBLIC "-//W3C//DTD SVG 20010904//EN"
 "http://www.w3.org/TR/2001/REC-SVG-20010904/DTD/svg10.dtd">
<svg version="1.0" xmlns="http://www.w3.org/2000/svg"
 width="400.000000pt" height="400.000000pt" viewBox="0 0 400.000000 400.000000"
 preserveAspectRatio="xMidYMid meet">

<g transform="translate(0.000000,400.000000) scale(0.100000,-0.100000)"
fill="#000000" stroke="none">
<path d="M1850 3953 c-92 -7 -250 -35 -356 -62 -680 -179 -1216 -720 -1393
-1406 -38 -147 -52 -248 -58 -420 -9 -261 23 -476 108 -722 34 -97 112 -273
122 -273 2 0 272 213 601 474 394 312 611 477 636 485 20 6 60 11 87 11 62 0
92 -15 433 -215 l254 -150 71 0 c57 0 78 5 112 25 23 14 303 268 624 565 320
297 600 556 622 575 l40 36 -34 59 c-376 678 -1106 1075 -1869 1018z"/>
</g>
</svg>
